<svg width="38" height="49" viewBox="0 0 38 49" fill="none" xmlns="http://www.w3.org/2000/svg">
<path d="M37.0047 15.6409C36.3023 11.1309 34.14 7.3984 30.6405 4.47465C28.2971 2.49095 25.469 1.16534 22.4453 0.633403C21.8054 0.425903 21.1192 0.482153 20.4743 0.300903H17.4809C17.0935 0.477153 16.6698 0.442153 16.2648 0.510903C11.8929 1.2534 8.23461 3.2709 5.31749 6.62215C-0.0993211 12.8409 -0.619255 22.2009 4.19263 28.9122C8.60457 35.0734 13.1252 41.1622 17.5909 47.2872C17.8971 47.7072 18.2158 48.0884 18.702 48.3059H19.4519C19.7019 48.1222 20.0469 48.0622 20.1943 47.7422C20.513 47.3197 20.8368 46.8997 21.1492 46.4734C25.4124 40.6447 29.7144 34.8484 33.9226 28.9734C36.7735 24.9834 37.7646 20.4784 37.0047 15.6409ZM34.1301 21.2884C33.7826 22.7609 33.3639 24.2109 32.6377 25.5497C30.1781 30.0822 26.4148 32.8509 21.3304 33.6409C13.0815 34.9259 5.32249 29.2159 4.0014 20.9984C2.69532 12.8684 7.9434 5.1759 15.9399 3.51215C19.8469 2.70044 23.9164 3.44766 27.2803 5.59444C30.6443 7.74122 33.0364 11.1176 33.9463 15.0034C33.9681 15.0761 33.9962 15.1468 34.0301 15.2147C34.2 15.3497 34.1213 15.5334 34.1251 15.7009C34.4092 17.5525 34.4101 19.4366 34.1276 21.2884H34.1301Z" fill="#488265"/>
<path d="M34.1252 15.6971C34.0431 15.5504 34.0099 15.3814 34.0303 15.2146C34.2002 15.3458 34.1215 15.5296 34.1252 15.6971Z" fill="#488265"/>
<path d="M19.0743 18.4934C19.0743 22.5834 19.0743 26.6738 19.0743 30.7647C18.8693 30.8109 18.7143 30.6984 18.5531 30.6047C15.3144 28.7355 12.0756 26.8651 8.83685 24.9934C8.41815 24.7522 8.33691 24.4022 8.33691 23.9722C8.34191 20.7997 8.34191 17.6276 8.33691 14.4559C8.33691 13.9722 8.33691 13.4872 8.33691 13.0034C8.33691 12.7847 8.33691 12.5659 8.4694 12.3784C10.0684 13.3001 11.6677 14.2226 13.2675 15.1459C15.2015 16.2634 17.137 17.3793 19.0743 18.4934Z" fill="#549675"/>
<path d="M29.8007 12.9972C29.8007 12.7797 29.8157 12.5584 29.6695 12.3722L26.9286 13.9872L24.3039 15.4872L19.0684 18.4872C19.0684 22.5772 19.0684 26.6676 19.0684 30.7584C19.2708 30.8059 19.4283 30.6934 19.5895 30.6022C20.0345 30.3472 20.4786 30.0905 20.9219 29.8322C22.9216 28.6655 24.9214 27.4989 26.9211 26.3322C27.6773 25.9047 28.4209 25.4572 29.1946 25.0534C29.637 24.8184 29.7982 24.4822 29.797 23.9934C29.797 20.3334 29.802 16.6647 29.8007 12.9972ZM26.9111 23.0509L21.9667 25.8972C21.9667 24.7847 21.9667 23.7447 21.9667 22.7047C21.9666 22.6512 21.9823 22.599 22.0119 22.5545C22.0415 22.5099 22.0836 22.4752 22.133 22.4547C23.7353 21.5609 25.2838 20.5734 26.9174 19.7347L26.9111 23.0509Z" fill="#488265"/>
<path d="M29.6692 12.3709L26.9283 13.9872L24.3037 15.4872L19.0681 18.4872C17.1367 17.3755 15.2032 16.2618 13.2676 15.1459C11.6678 14.2234 10.0688 13.2997 8.4707 12.3747C8.5257 12.1909 8.68443 12.1147 8.83191 12.0297L13.8313 9.13843C15.4211 8.21677 17.01 7.29385 18.5982 6.36968C18.7343 6.27852 18.8942 6.22913 19.058 6.22758C19.2219 6.22602 19.3827 6.27237 19.5205 6.36093C22.781 8.25093 26.043 10.1388 29.3068 12.0247C29.4555 12.1097 29.6192 12.1834 29.6692 12.3709Z" fill="#4B8769"/>
</svg>
