<svg width="40" height="41" viewBox="0 0 40 41" fill="none" xmlns="http://www.w3.org/2000/svg">
<path d="M4.16602 18.7821C5.83268 18.7821 5.83268 10.4487 16.666 10.4487C27.4993 10.4487 27.0543 18.1904 29.5543 19.0237V22.9487H4.16602V18.7821Z" fill="#FF4081"/>
<path d="M38.3327 26.4906C38.3327 26.4906 38.3327 27.9489 36.666 27.9489C34.166 27.9489 4.16602 27.9489 4.16602 27.9489C2.78518 27.9489 1.66602 26.8289 1.66602 25.4489V21.2822C1.66602 21.2822 1.66602 18.7822 4.16602 18.7822C7.49935 18.7822 25.8327 18.7822 25.8327 18.7822C34.166 18.7822 38.3327 22.1156 38.3327 23.7822V26.4906Z" fill="#FF4081"/>
<path d="M34.1673 25.4489C34.1673 27.7497 32.3023 29.6156 30.0007 29.6156C27.699 29.6156 25.834 27.7497 25.834 25.4489C25.834 23.1481 27.699 21.2822 30.0007 21.2822C32.3023 21.2822 34.1673 23.1481 34.1673 25.4489ZM14.1673 25.4489C14.1673 27.7497 12.3015 29.6156 10.0007 29.6156C7.69982 29.6156 5.83398 27.7497 5.83398 25.4489C5.83398 23.1481 7.69982 21.2822 10.0007 21.2822C12.3015 21.2822 14.1673 23.1481 14.1673 25.4489Z" fill="#455A64"/>
<path d="M31.6673 25.4489C31.6673 26.3697 30.9215 27.1156 30.0007 27.1156C29.0798 27.1156 28.334 26.3697 28.334 25.4489C28.334 24.5281 29.0798 23.7822 30.0007 23.7822C30.9215 23.7822 31.6673 24.5281 31.6673 25.4489ZM11.6673 25.4489C11.6673 26.3697 10.9215 27.1156 10.0007 27.1156C9.07982 27.1156 8.33398 26.3697 8.33398 25.4489C8.33398 24.5281 9.07982 23.7822 10.0007 23.7822C10.9215 23.7822 11.6673 24.5281 11.6673 25.4489Z" fill="#B0BEC5"/>
<path d="M2.91602 21.2821H1.66602V24.6154H2.91602C3.60685 24.6154 4.16602 24.0554 4.16602 23.3654V22.5321C4.16602 21.8421 3.60685 21.2821 2.91602 21.2821ZM35.8327 20.9971V23.3654C35.8327 24.0554 36.3927 24.6154 37.0827 24.6154H38.3327V23.7821C38.3327 23.0371 37.4952 21.9612 35.8327 20.9971Z" fill="#FFC107"/>
<path d="M26.9405 18.7823C26.6963 18.4023 26.4697 17.9948 26.2397 17.5781C24.9605 15.2523 23.3713 12.3898 17.5005 12.1406V18.7823H26.9405ZM15.8338 18.7823V12.1431C9.76633 12.4231 8.07299 15.7131 6.94383 17.9281C6.79633 18.2165 6.64633 18.5056 6.48633 18.7823H15.8338Z" fill="#660636"/>
</svg>
