<svg width="41" height="41" viewBox="0 0 41 41" fill="none" xmlns="http://www.w3.org/2000/svg">
<path d="M25.1969 0.44873H15.7852V9.8605H25.1969V0.44873Z" fill="#245D51"/>
<path d="M11.0789 32.2134H6.37305V34.5663H11.0789V32.2134Z" fill="#245D51"/>
<path d="M39.3157 0.44873H27.551V11.037C27.551 11.349 27.4271 11.6482 27.2064 11.8689C26.9858 12.0895 26.6866 12.2134 26.3745 12.2134H14.6098C14.2978 12.2134 13.9986 12.0895 13.7779 11.8689C13.5573 11.6482 13.4334 11.349 13.4334 11.037V0.44873H1.66866C1.35664 0.44873 1.0574 0.57268 0.836768 0.793311C0.616137 1.01394 0.492188 1.31318 0.492188 1.6252V39.2723C0.492188 39.5843 0.616137 39.8835 0.836768 40.1042C1.0574 40.3248 1.35664 40.4487 1.66866 40.4487H39.3157C39.6277 40.4487 39.927 40.3248 40.1476 40.1042C40.3682 39.8835 40.4922 39.5843 40.4922 39.2723V1.6252C40.4922 1.31318 40.3682 1.01394 40.1476 0.793311C39.927 0.57268 39.6277 0.44873 39.3157 0.44873ZM13.4334 35.7429C13.4334 36.0549 13.3094 36.3541 13.0888 36.5747C12.8682 36.7954 12.5689 36.9193 12.2569 36.9193H5.19807C4.88605 36.9193 4.58681 36.7954 4.36618 36.5747C4.14555 36.3541 4.0216 36.0549 4.0216 35.7429V31.037C4.0216 30.7249 4.14555 30.4257 4.36618 30.2051C4.58681 29.9844 4.88605 29.8605 5.19807 29.8605H12.2569C12.5689 29.8605 12.8682 29.9844 13.0888 30.2051C13.3094 30.4257 13.4334 30.7249 13.4334 31.037V35.7429Z" fill="#488265"/>
</svg>
