<svg width="29" height="20" viewBox="0 0 29 20" fill="none" xmlns="http://www.w3.org/2000/svg">
<g filter="url(#filter0_d_278_1260)">
<rect x="1.78711" y="0.49707" width="25.2288" height="16.6872" rx="8.34361" fill="#FFE766" shape-rendering="crispEdges"/>
<path d="M14.0999 5.22632H14.7023C14.7558 5.22632 14.7826 5.25309 14.7826 5.30664V12.3748C14.7826 12.4284 14.7558 12.4552 14.7023 12.4552H14.0999C14.0463 12.4552 14.0195 12.4284 14.0195 12.3748V5.30664C14.0195 5.25309 14.0463 5.22632 14.0999 5.22632Z" fill="#305743"/>
<path d="M11.0276 8.45923H17.7745C17.8281 8.45923 17.8548 8.486 17.8548 8.53955V9.14195C17.8548 9.1955 17.8281 9.22227 17.7745 9.22227H11.0276C10.974 9.22227 10.9473 9.1955 10.9473 9.14195V8.53955C10.9473 8.486 10.974 8.45923 11.0276 8.45923Z" fill="#305743"/>
</g>
<defs>
<filter id="filter0_d_278_1260" x="0.719411" y="0.49707" width="27.3639" height="18.8227" filterUnits="userSpaceOnUse" color-interpolation-filters="sRGB">
<feFlood flood-opacity="0" result="BackgroundImageFix"/>
<feColorMatrix in="SourceAlpha" type="matrix" values="0 0 0 0 0 0 0 0 0 0 0 0 0 0 0 0 0 0 127 0" result="hardAlpha"/>
<feOffset dy="1.0677"/>
<feGaussianBlur stdDeviation="0.533849"/>
<feComposite in2="hardAlpha" operator="out"/>
<feColorMatrix type="matrix" values="0 0 0 0 0 0 0 0 0 0.2 0 0 0 0 0.0980392 0 0 0 0.12 0"/>
<feBlend mode="normal" in2="BackgroundImageFix" result="effect1_dropShadow_278_1260"/>
<feBlend mode="normal" in="SourceGraphic" in2="effect1_dropShadow_278_1260" result="shape"/>
</filter>
</defs>
</svg>
