<svg xmlns="http://www.w3.org/2000/svg" viewBox="0 0 1319.4 1319.4"><defs><style>.cls-1{fill:#dbdbdb;}.cls-2{fill:#babab9;}.cls-3{fill:#a8a8a8;}</style></defs><g id="Layer_2" data-name="Layer 2"><g id="Layer_1-2" data-name="Layer 1"><rect class="cls-1" width="1319.4" height="1319.4"/><path class="cls-2" d="M1076.65,1259.11l-87.14-48.32s-46.48-8-62-24.15-15,8.51-15,8.51l-4.36-16.57s-58.31-19.82-75-35c-41.91-38-45.42-114.79-39.19-179.63,23.48-20.9,51.87-48.88,65.14-72.36,1.56-.91,3.12-1.83,4.66-2.77a423.55,423.55,0,0,0,54.42-28.13c-4.14,17.62-12.07,38.9-21.26,54.47-11.9-6.85-21.37-15.61-24-18.88a97.78,97.78,0,0,0,22,22.26c-1,1.51-2,3-2.94,4.34-17.15,23.75-36.94-6.6-36.94-6.6a30.86,30.86,0,0,0,18.47,18.47c7.93,5.52,17-.78,26.15-13.07a60,60,0,0,0,26.63,9.12h.13c-1.08,2.89-2.2,5.61-3.38,8.12,1.45-2.38,2.95-5.07,4.46-8.07,40.51,1.72,51.47-74.11,54.43-113.78q4.23-6.09,8.21-11.94c20.56-20.28,39.81-44.37,54.63-72.58-9.87,29.37-20.26,52.17-20.26,52.17a463.77,463.77,0,0,0,27.64-67.4q3.15-7.1,5.9-14.52a574.47,574.47,0,0,1-23.57,63.07c50.14-100.27,39.26-160.36,39.26-160.36l-.28.47c-.77-24.13-4.72-50-12.59-77.6C955.9,160.36,816,173.54,795.6,170.86s-73.13,32.86-73.13,32.86S546.74,77.45,374.71,351.62c-55.94,89.15-85.72,164.46-98.28,228q-7.2,17.57-15.19,38.51c-12.55,33-5.6,49.47,8.67,56.94a284.52,284.52,0,0,0,7.44,47c.06,8.26.43,16.79,1.16,25.57a130.26,130.26,0,0,0-8,22.85c-3.75,14.67-1.06,26.35,6.9,34-.18,1.89-.34,3.82-.47,5.85-1.9,29.41,12.17,52.34,36.53,62.25,21.58,44,54.77,89.91,104.41,135.27q14.14,18.48,30.36,37.4c-8.31-10-17.18-21.32-26.27-33.69a702.71,702.71,0,0,0,88.57,67c-2.05-1.33-51.61-34-103.43-90.48-8.57-12.84-19.47-36.92-22.64-78.56,14.18,42.32,45.77,112.65,107.08,150.78-14-9.5-35.32-28.82-48.23-63.6a68.18,68.18,0,0,0,23.75,1.43c3.14-.31,30.34-11.88,64.65-39.59,0,0-57.32,38.84-92.76,24.56-6.07-22.17-8.71-49.66-4.94-83.54,2.13-1.12,4.11-2.3,6-3.52,14.74,1.9,28.33.08,41.39-6.58,10.6,18.23,26.63,40,50.59,65.4,1.11,50.53-2.49,115.2-24.31,150-20.82,33.2-109.81,74.15-109.81,74.15L377,1198.71l-11.63-4c-11.63-4-34.9,24.16-34.9,24.16l-67.86,16.43-89.18,78.84h957.34v-12.74C1130.73,1289.31,1076.65,1259.11,1076.65,1259.11ZM959.14,832.36c.16.95.33,1.91.49,2.88-4.29,7-8.22,13.3-11.55,18.64q.79-6.79,1.4-14.17C952.69,837.34,955.91,834.9,959.14,832.36ZM346.58,848.08c-12.85-1.06-17.22-9.43-17.18-20.38C335.16,835.09,341,841.87,346.58,848.08Zm11.64,12.37,1.6,1.64q.19,1,.39,2.13a97.28,97.28,0,0,1-20.36,1q-1.85-4.68-3.62-9.41C342.1,858.76,349.51,860.36,358.22,860.45Zm-64.85-91.93a276.61,276.61,0,0,0,15.34,29.19c.61,2.19,1.23,4.38,1.88,6.59a44.31,44.31,0,0,1-11.2-1.44c-2.74-10.19-5-20.59-6.83-31.2C292.83,770.58,293.1,769.53,293.37,768.52Zm9.25,45.59c1.21.08,2.45.14,3.72.16q-1.11,2.72-2,5.43C303.78,817.85,303.19,816,302.62,814.11Zm12.48,4.7q2.7,8.3,5.8,16.8a28.41,28.41,0,0,0,3.65,9.7q3.66,9.45,7.81,19.12A65.9,65.9,0,0,1,322,862c-.51-.83-1-1.65-1.37-2.45-.45-.42-.86-.85-1.28-1.27q-4.53-10.05-8.53-20.47C310.73,831.68,312.37,825.23,315.1,818.81Zm23.23,59,.44.95-1.39-1Zm6.71.06a108.12,108.12,0,0,0,17.44-2c1,5.07,2.25,10.48,3.6,16.12a99.91,99.91,0,0,1-18.24-7.66Q346.43,881.15,345,877.88ZM902.21,918c12-17.67,23.87-44.81,32.92-68.17q4.71-3.18,9.49-6.6c-.67,5.59-1.6,12.69-2.79,20.6-2.87,4.56-4.55,7.2-4.55,7.2l4.39-6.13c-2.81,18.42-7.06,41-12.95,59.14C920,925,910.67,922.17,902.21,918Zm55.67-22.81c-6.23,18.71-16.17,26.7-27.1,28.57,6.66-15.24,13.23-37,17-67.53q6.47-9.22,12.32-17.92C962.86,856.64,963.68,877.83,957.88,895.21ZM982,814.52q.08-.91.12-1.8c.8-.73,1.59-1.48,2.38-2.23ZM274.24,591.59a352.22,352.22,0,0,0-4.85,75C254.6,661.42,261.35,628.35,274.24,591.59Zm6.18,173.52q.82,6.09,1.91,12.32a118,118,0,0,0-3.09,13.22C276.93,783.78,277.94,774.56,280.42,765.11Zm6.25,45.38c1.11.48,2.26.92,3.46,1.31a354,354,0,0,0,12.42,36.31,54.39,54.39,0,0,0,1.68,6.62C290,846.92,286.14,829.15,286.67,810.49Zm50,81.9a103,103,0,0,0,11.52,5.74,670.84,670.84,0,0,0,40.19,68.51A506.09,506.09,0,0,1,336.64,892.39Zm64,88.49a664.54,664.54,0,0,1-45.22-80,133.64,133.64,0,0,0,14,4c7.38,27.15,18.39,57.31,34.33,79.42Z"/><path class="cls-3" d="M510.54,1078.56l.07,0Z"/><path class="cls-3" d="M501.37,1102.36q-29.08-29-53.13-57.1C478.44,1081.78,501.37,1102.36,501.37,1102.36Z"/><path class="cls-3" d="M491.55,1060.3a78.92,78.92,0,0,0,13.78,7.75Q498.21,1064.45,491.55,1060.3Z"/><path class="cls-3" d="M872.87,896.32c-.48-.7-.75-1.11-.75-1.11A4.75,4.75,0,0,0,872.87,896.32Z"/><path class="cls-3" d="M909.07,955.91c5.24-2.1,9.86-8.33,13.9-16.95C915.3,951.58,909.07,955.91,909.07,955.91Z"/></g></g></svg>