<svg width="27" height="24" viewBox="0 0 27 24" fill="none" xmlns="http://www.w3.org/2000/svg">
<path fill-rule="evenodd" clip-rule="evenodd" d="M13.5189 4.74668C16.0642 6.92596 16.3609 10.756 14.1816 13.3013C12.0023 15.8466 8.17233 16.1433 5.62704 13.964C3.08175 11.7847 2.78504 7.95469 4.96432 5.4094C7.1436 2.86411 10.9736 2.5674 13.5189 4.74668ZM17.1846 13.7C19.2327 10.1211 18.5197 5.47974 15.2721 2.69909C11.5959 -0.448421 6.06424 -0.0198837 2.91673 3.65626C-0.230784 7.3324 0.197753 12.8641 3.87389 16.0116C7.12154 18.7922 11.8174 18.7819 15.0381 16.207L23.8224 23.7281C24.1051 23.9701 24.5305 23.9372 24.7726 23.6545L26.0424 22.1713C26.2845 21.8886 26.2515 21.4632 25.9688 21.2211L17.1846 13.7Z" fill="#5F6160"/>
</svg>
