<svg width="30" height="30" viewBox="0 0 30 30" fill="none" xmlns="http://www.w3.org/2000/svg">
<path fill-rule="evenodd" clip-rule="evenodd" d="M12.333 1.66656C12.3332 1.38849 12.2465 1.1173 12.085 0.890943C11.9235 0.664586 11.6953 0.494387 11.4322 0.404165C11.1692 0.313943 10.8846 0.308213 10.6181 0.387777C10.3517 0.46734 10.1168 0.628216 9.94629 0.84789L0.612957 12.8479C0.430884 13.0819 0.332031 13.37 0.332031 13.6666C0.332031 13.9631 0.430884 14.2512 0.612957 14.4852L9.94629 26.4852C10.1168 26.7049 10.3517 26.8658 10.6181 26.9453C10.8846 27.0249 11.1692 27.0192 11.4322 26.9289C11.6953 26.8387 11.9235 26.6685 12.085 26.4422C12.2465 26.2158 12.3332 25.9446 12.333 25.6666V20.3466C19.505 20.4959 22.9503 21.8572 24.681 23.3372C26.3263 24.7439 26.6276 26.3986 26.941 28.1319L27.0223 28.5786C27.0821 28.8982 27.2567 29.1849 27.5131 29.3848C27.7696 29.5847 28.0903 29.684 28.4148 29.664C28.7394 29.644 29.0454 29.5061 29.2754 29.2763C29.5054 29.0464 29.6435 28.7404 29.6636 28.4159C29.8916 24.7519 29.549 19.4426 26.961 15.0012C24.449 10.6906 19.925 7.37589 12.333 7.02922V1.66656Z" fill="#488265"/>
</svg>
