<svg width="41" height="41" viewBox="0 0 41 41" fill="none" xmlns="http://www.w3.org/2000/svg">
<path d="M5.1875 12.1152H28.5208V35.4486H5.1875V12.1152Z" fill="#FF9800"/>
<path d="M14.3555 12.1152H19.3555V16.2819H14.3555V12.1152Z" fill="#FFB74D"/>
<path d="M28.5195 12.1154L35.1862 5.44873V27.8446L28.5195 35.4487V12.1154Z" fill="#F57C00"/>
<path d="M5.1875 12.1154L13.5208 5.44873H35.1875L28.5208 12.1154H5.1875Z" fill="#FFCC80"/>
<path d="M19.7708 18.7822H13.9375C13.2475 18.7822 12.6875 18.2222 12.6875 17.5322C12.6875 16.8422 13.2475 16.2822 13.9375 16.2822H19.7708C20.4608 16.2822 21.0208 16.8422 21.0208 17.5322C21.0208 18.2222 20.4608 18.7822 19.7708 18.7822Z" fill="#AB5600"/>
<path d="M19.3555 12.1154H14.3555L21.8555 5.44873H26.8555L19.3555 12.1154Z" fill="#FFE0B2"/>
</svg>
